<svg t="1688570846251" class="icon" viewBox="0 0 1024 1024" version="1.1" xmlns="http://www.w3.org/2000/svg" p-id="910" xmlns:xlink="http://www.w3.org/1999/xlink" width="200" height="200"><path d="M657.36 488H366.64C310.08 488 264 441.92 264 385.36c0-56.64 46.08-102.64 102.64-102.64h321.12c8.64 16.08 25.6 27.12 45.12 27.12 28.16 0 51.12-22.96 51.12-51.12s-22.96-51.12-51.12-51.12a51.12 51.12 0 0 0-45.12 27.12H366.64C283.6 234.64 216 302.24 216 385.36 216 468.4 283.6 536 366.64 536h290.72C713.92 536 760 582.08 760 638.64c0 56.64-46.08 102.64-102.64 102.64H336.24c-8.64-16.08-25.6-27.12-45.12-27.12-28.16 0-51.12 22.96-51.12 51.12 0 28.16 22.96 51.12 51.12 51.12 19.52 0 36.48-11.04 45.12-27.12h321.12c83.04 0 150.64-67.6 150.64-150.64C808 555.6 740.4 488 657.36 488z" fill="#2A2C2C" p-id="911"></path></svg>